<svg xmlns="http://www.w3.org/2000/svg" version="1.0" width="1280.000000pt" height="1280.000000pt" viewBox="0 0 1280.000000 1280.000000" preserveAspectRatio="xMidYMid meet">
<metadata fill="#ffffff">
Created by potrace 1.16, written by Peter Selinger 2001-2019
</metadata>
<g transform="translate(0.000000,1280.000000) scale(0.100000,-0.100000)" fill="#ffffff" stroke="none">
<path d="M6095 11730 c-487 -32 -905 -110 -1340 -251 -1920 -621 -3334 -2286 -3634 -4279 -41 -273 -55 -471 -55 -795 0 -493 47 -878 163 -1335 531 -2088 2316 -3677 4446 -3959 458 -60 968 -62 1410 -5 831 108 1620 406 2305 872 1240 842 2068 2153 2289 3622 41 276 55 471 55 800 0 329 -14 524 -55 800 -300 1994 -1713 3657 -3634 4279 -303 99 -543 153 -920 211 -247 37 -764 57 -1030 40z m880 -3735 c489 -50 940 -200 1350 -450 553 -336 1012 -863 1266 -1450 74 -172 182 -499 168 -508 -4 -3 -355 -119 -445 -148 l-51 -16 -31 113 c-87 316 -239 623 -446 899 -109 145 -351 390 -491 496 -580 440 -1261 624 -1975 533 -466 -59 -936 -261 -1310 -562 -106 -85 -350 -325 -350 -345 0 -6 269 -281 597 -609 l598 -598 -1328 0 -1327 0 0 1327 0 1328 539 -539 540 -540 168 165 c287 280 570 476 924 639 300 137 678 238 1009 269 151 13 443 12 595 -4z" fill="#ffffff"/>
</g>
</svg>