<svg xmlns="http://www.w3.org/2000/svg" version="1.0" width="1280.000000pt" height="1280.000000pt" viewBox="0 0 1280.000000 1280.000000" preserveAspectRatio="xMidYMid meet">
<metadata fill="#ffffff">
Created by potrace 1.16, written by Peter Selinger 2001-2019
</metadata>
<g transform="translate(0.000000,1280.000000) scale(0.100000,-0.100000)" fill="#ffffff" stroke="none">
<path d="M6150 11734 c-1343 -69 -2578 -615 -3524 -1560 -1128 -1128 -1689 -2683 -1541 -4274 14 -152 20 -198 51 -390 196 -1226 869 -2395 1844 -3209 835 -697 1826 -1108 2930 -1217 241 -24 739 -24 980 0 906 89 1713 373 2450 861 1301 861 2154 2228 2354 3770 42 321 54 814 27 1115 -118 1347 -688 2532 -1662 3456 -861 816 -1962 1313 -3164 1429 -157 15 -598 26 -745 19z m1315 -4274 l1060 -1060 -798 0 -797 0 0 -1065 0 -1065 -530 0 -530 0 0 1065 0 1065 -797 0 -798 0 1060 1060 c583 583 1062 1060 1065 1060 3 0 482 -477 1065 -1060z" fill="#ffffff"/>
</g>
</svg>